<mxfile host="app.diagrams.net" modified="2021-03-10T03:22:38.739Z" agent="5.0 (Windows NT 10.0; Win64; x64) AppleWebKit/537.36 (KHTML, like Gecko) Chrome/88.0.4324.190 Safari/537.36" etag="RYkyOgkIU4R57VtJPPUx" version="14.4.3" type="github">
  <diagram id="xOBQJXy0Ue40J4LOi7c3" name="Page-1">
    <mxGraphModel dx="1038" dy="548" grid="1" gridSize="10" guides="1" tooltips="1" connect="1" arrows="1" fold="1" page="1" pageScale="1" pageWidth="1169" pageHeight="1654" math="0" shadow="0">
      <root>
        <mxCell id="0" />
        <mxCell id="1" parent="0" />
        <mxCell id="efsipYV88HZfpGAUX3hU-22" value="" style="edgeStyle=orthogonalEdgeStyle;rounded=0;orthogonalLoop=1;jettySize=auto;html=1;" parent="1" edge="1">
          <mxGeometry relative="1" as="geometry">
            <mxPoint x="259.5" y="765" as="sourcePoint" />
            <mxPoint x="259.5" y="787" as="targetPoint" />
          </mxGeometry>
        </mxCell>
        <mxCell id="efsipYV88HZfpGAUX3hU-23" value="" style="edgeStyle=orthogonalEdgeStyle;rounded=0;orthogonalLoop=1;jettySize=auto;html=1;entryX=0;entryY=0.5;entryDx=0;entryDy=0;" parent="1" edge="1" target="RqDaoYSggY41LwrY34h8-11">
          <mxGeometry relative="1" as="geometry">
            <mxPoint x="320" y="669.5" as="sourcePoint" />
            <mxPoint x="350" y="669.5" as="targetPoint" />
          </mxGeometry>
        </mxCell>
        <mxCell id="efsipYV88HZfpGAUX3hU-29" value="" style="edgeStyle=orthogonalEdgeStyle;rounded=0;orthogonalLoop=1;jettySize=auto;html=1;exitX=0;exitY=0.5;exitDx=0;exitDy=0;" parent="1" edge="1" source="RqDaoYSggY41LwrY34h8-18">
          <mxGeometry relative="1" as="geometry">
            <mxPoint x="510" y="890" as="sourcePoint" />
            <mxPoint x="320" y="889.5" as="targetPoint" />
            <Array as="points">
              <mxPoint x="415" y="890" />
            </Array>
          </mxGeometry>
        </mxCell>
        <mxCell id="efsipYV88HZfpGAUX3hU-18" value="" style="endArrow=classic;html=1;exitX=0;exitY=0.5;exitDx=0;exitDy=0;entryX=0.5;entryY=0;entryDx=0;entryDy=0;" parent="1" edge="1">
          <mxGeometry width="50" height="50" relative="1" as="geometry">
            <mxPoint x="360" y="620" as="sourcePoint" />
            <mxPoint x="260" y="650" as="targetPoint" />
            <Array as="points">
              <mxPoint x="260" y="620" />
            </Array>
          </mxGeometry>
        </mxCell>
        <mxCell id="efsipYV88HZfpGAUX3hU-34" value="" style="endArrow=classic;html=1;entryX=1;entryY=0.5;entryDx=0;entryDy=0;" parent="1" edge="1" target="RqDaoYSggY41LwrY34h8-20">
          <mxGeometry width="50" height="50" relative="1" as="geometry">
            <mxPoint x="520" y="740" as="sourcePoint" />
            <mxPoint x="490" y="740" as="targetPoint" />
          </mxGeometry>
        </mxCell>
        <mxCell id="efsipYV88HZfpGAUX3hU-35" value="" style="endArrow=classic;html=1;" parent="1" edge="1">
          <mxGeometry width="50" height="50" relative="1" as="geometry">
            <mxPoint x="580" y="830" as="sourcePoint" />
            <mxPoint x="580" y="869" as="targetPoint" />
          </mxGeometry>
        </mxCell>
        <mxCell id="wHggCsX_2gIJy1Te9Tja-1" value="" style="endArrow=classic;html=1;" parent="1" edge="1">
          <mxGeometry width="50" height="50" relative="1" as="geometry">
            <mxPoint x="579.7333333333333" y="690" as="sourcePoint" />
            <mxPoint x="580" y="719" as="targetPoint" />
            <Array as="points" />
          </mxGeometry>
        </mxCell>
        <mxCell id="RqDaoYSggY41LwrY34h8-2" value="" style="endArrow=classic;html=1;exitX=1;exitY=0.5;exitDx=0;exitDy=0;" parent="1" edge="1" source="RqDaoYSggY41LwrY34h8-17">
          <mxGeometry width="50" height="50" relative="1" as="geometry">
            <mxPoint x="580" y="860" as="sourcePoint" />
            <mxPoint x="520" y="807" as="targetPoint" />
            <Array as="points" />
          </mxGeometry>
        </mxCell>
        <mxCell id="RqDaoYSggY41LwrY34h8-4" value="" style="endArrow=classic;html=1;exitX=0.5;exitY=1;exitDx=0;exitDy=0;entryX=0;entryY=0.5;entryDx=0;entryDy=0;" parent="1" target="RqDaoYSggY41LwrY34h8-8" edge="1">
          <mxGeometry width="50" height="50" relative="1" as="geometry">
            <mxPoint x="260" y="910" as="sourcePoint" />
            <mxPoint x="360" y="960" as="targetPoint" />
            <Array as="points">
              <mxPoint x="260" y="990" />
            </Array>
          </mxGeometry>
        </mxCell>
        <mxCell id="RqDaoYSggY41LwrY34h8-7" value="&lt;span style=&quot;font-size: 13px;&quot;&gt;新语言需求&lt;/span&gt;" style="rounded=1;whiteSpace=wrap;html=1;strokeColor=none;fontSize=13;fontColor=#FFFFFF;fillColor=#66B2FF;" parent="1" vertex="1">
          <mxGeometry x="360" y="590" width="120" height="40" as="geometry" />
        </mxCell>
        <mxCell id="RqDaoYSggY41LwrY34h8-8" value="正式服上线" style="rounded=1;whiteSpace=wrap;html=1;strokeColor=none;fontColor=#FFFFFF;fontSize=13;fillColor=#66B2FF;" parent="1" vertex="1">
          <mxGeometry x="360" y="970" width="120" height="40" as="geometry" />
        </mxCell>
        <mxCell id="RqDaoYSggY41LwrY34h8-9" value="键盘设计" style="rounded=1;whiteSpace=wrap;html=1;fillColor=#6666FF;fontColor=#FFFFFF;strokeColor=none;fontSize=13;" parent="1" vertex="1">
          <mxGeometry x="200" y="650" width="120" height="40" as="geometry" />
        </mxCell>
        <mxCell id="RqDaoYSggY41LwrY34h8-11" value="布局模板脚本" style="rounded=1;whiteSpace=wrap;html=1;fillColor=#97D077;strokeColor=none;fontSize=13;" parent="1" vertex="1">
          <mxGeometry x="360" y="650" width="120" height="40" as="geometry" />
        </mxCell>
        <mxCell id="RqDaoYSggY41LwrY34h8-12" value="格式校验和转换" style="rounded=1;whiteSpace=wrap;html=1;fillColor=#97D077;strokeColor=none;fontSize=13;" parent="1" vertex="1">
          <mxGeometry x="520" y="720" width="120" height="40" as="geometry" />
        </mxCell>
        <mxCell id="RqDaoYSggY41LwrY34h8-13" value="打包脚本" style="rounded=1;whiteSpace=wrap;html=1;fillColor=#97D077;strokeColor=none;fontSize=13;" parent="1" vertex="1">
          <mxGeometry x="200" y="720" width="120" height="40" as="geometry" />
        </mxCell>
        <mxCell id="RqDaoYSggY41LwrY34h8-14" value="服务器部署脚本" style="rounded=1;whiteSpace=wrap;html=1;fillColor=#97D077;strokeColor=none;fontSize=13;" parent="1" vertex="1">
          <mxGeometry x="520" y="787" width="120" height="40" as="geometry" />
        </mxCell>
        <mxCell id="RqDaoYSggY41LwrY34h8-15" value="定制布局数据" style="rounded=1;whiteSpace=wrap;html=1;strokeColor=none;fillColor=#6666FF;fontColor=#FFFFFF;fontSize=13;" parent="1" vertex="1">
          <mxGeometry x="520" y="650" width="120" height="40" as="geometry" />
        </mxCell>
        <mxCell id="RqDaoYSggY41LwrY34h8-16" value="语言包文件" style="rounded=1;whiteSpace=wrap;html=1;fillColor=#6666FF;strokeColor=none;fontColor=#FFFFFF;fontSize=13;" parent="1" vertex="1">
          <mxGeometry x="200" y="787" width="120" height="40" as="geometry" />
        </mxCell>
        <mxCell id="RqDaoYSggY41LwrY34h8-17" value="一键预览" style="rounded=1;whiteSpace=wrap;html=1;fillColor=#97D077;strokeColor=none;fontSize=13;" parent="1" vertex="1">
          <mxGeometry x="360" y="787" width="120" height="40" as="geometry" />
        </mxCell>
        <mxCell id="RqDaoYSggY41LwrY34h8-18" value="服务器配置" style="rounded=1;whiteSpace=wrap;html=1;strokeColor=#000000;fillColor=#FFFFFF;fontSize=13;" parent="1" vertex="1">
          <mxGeometry x="520" y="870" width="120" height="40" as="geometry" />
        </mxCell>
        <mxCell id="RqDaoYSggY41LwrY34h8-19" value="测试服验收" style="rounded=1;whiteSpace=wrap;html=1;fillColor=#C3ABD0;strokeColor=none;fontColor=#FFFFFF;fontSize=13;" parent="1" vertex="1">
          <mxGeometry x="200" y="870" width="120" height="40" as="geometry" />
        </mxCell>
        <mxCell id="RqDaoYSggY41LwrY34h8-20" value="语言包数据" style="rounded=1;whiteSpace=wrap;html=1;fontColor=#FFFFFF;strokeColor=none;fillColor=#6666FF;fontSize=13;" parent="1" vertex="1">
          <mxGeometry x="360" y="720" width="120" height="40" as="geometry" />
        </mxCell>
        <mxCell id="RqDaoYSggY41LwrY34h8-21" value="" style="endArrow=none;dashed=1;html=1;dashPattern=1 3;strokeWidth=2;fontColor=#CCCCCC;" parent="1" edge="1">
          <mxGeometry width="50" height="50" relative="1" as="geometry">
            <mxPoint x="40" y="840" as="sourcePoint" />
            <mxPoint x="750" y="840" as="targetPoint" />
          </mxGeometry>
        </mxCell>
        <mxCell id="RqDaoYSggY41LwrY34h8-22" value="" style="endArrow=none;dashed=1;html=1;dashPattern=1 3;strokeWidth=2;fontColor=#CCCCCC;" parent="1" edge="1">
          <mxGeometry width="50" height="50" relative="1" as="geometry">
            <mxPoint x="40" y="950" as="sourcePoint" />
            <mxPoint x="750" y="950" as="targetPoint" />
          </mxGeometry>
        </mxCell>
        <mxCell id="RqDaoYSggY41LwrY34h8-23" value="" style="endArrow=none;dashed=1;html=1;dashPattern=1 3;strokeWidth=2;fontColor=#CCCCCC;" parent="1" edge="1">
          <mxGeometry width="50" height="50" relative="1" as="geometry">
            <mxPoint x="40" y="640" as="sourcePoint" />
            <mxPoint x="750" y="640" as="targetPoint" />
          </mxGeometry>
        </mxCell>
        <mxCell id="RqDaoYSggY41LwrY34h8-25" value="&lt;font style=&quot;font-size: 20px&quot;&gt;测试&lt;/font&gt;" style="rounded=1;whiteSpace=wrap;html=1;fontColor=#ffffff;strokeColor=none;fillColor=#C3ABD0;" parent="1" vertex="1">
          <mxGeometry x="60" y="860" width="120" height="60" as="geometry" />
        </mxCell>
        <mxCell id="RqDaoYSggY41LwrY34h8-26" value="&lt;font style=&quot;font-size: 20px&quot;&gt;上线&lt;/font&gt;" style="rounded=1;whiteSpace=wrap;html=1;fontColor=#ffffff;strokeColor=none;fillColor=#66B2FF;" parent="1" vertex="1">
          <mxGeometry x="60" y="970" width="120" height="60" as="geometry" />
        </mxCell>
        <mxCell id="RqDaoYSggY41LwrY34h8-27" value="&lt;font style=&quot;font-size: 20px&quot;&gt;产品设计&lt;/font&gt;" style="rounded=1;whiteSpace=wrap;html=1;fontColor=#ffffff;fillColor=#6666FF;strokeColor=none;" parent="1" vertex="1">
          <mxGeometry x="60" y="710" width="120" height="60" as="geometry" />
        </mxCell>
        <mxCell id="9wywZuN-ud5n2_ETPoj8-1" value="" style="shape=flexArrow;endArrow=classic;html=1;fontColor=#CCCCCC;" edge="1" parent="1">
          <mxGeometry width="50" height="50" relative="1" as="geometry">
            <mxPoint x="120" y="780" as="sourcePoint" />
            <mxPoint x="119.5" y="827" as="targetPoint" />
          </mxGeometry>
        </mxCell>
        <mxCell id="9wywZuN-ud5n2_ETPoj8-2" value="" style="shape=flexArrow;endArrow=classic;html=1;fontColor=#CCCCCC;" edge="1" parent="1">
          <mxGeometry width="50" height="50" relative="1" as="geometry">
            <mxPoint x="120" y="930" as="sourcePoint" />
            <mxPoint x="119.5" y="960" as="targetPoint" />
          </mxGeometry>
        </mxCell>
        <mxCell id="9wywZuN-ud5n2_ETPoj8-3" value="" style="edgeStyle=orthogonalEdgeStyle;rounded=0;orthogonalLoop=1;jettySize=auto;html=1;entryX=0;entryY=0.5;entryDx=0;entryDy=0;" edge="1" parent="1" target="RqDaoYSggY41LwrY34h8-15">
          <mxGeometry relative="1" as="geometry">
            <mxPoint x="480" y="669.5" as="sourcePoint" />
            <mxPoint x="510" y="669.5" as="targetPoint" />
          </mxGeometry>
        </mxCell>
        <mxCell id="9wywZuN-ud5n2_ETPoj8-4" value="" style="endArrow=classic;html=1;entryX=1;entryY=0.5;entryDx=0;entryDy=0;" edge="1" parent="1">
          <mxGeometry width="50" height="50" relative="1" as="geometry">
            <mxPoint x="360" y="740" as="sourcePoint" />
            <mxPoint x="320" y="740" as="targetPoint" />
          </mxGeometry>
        </mxCell>
        <mxCell id="9wywZuN-ud5n2_ETPoj8-6" value="" style="edgeStyle=orthogonalEdgeStyle;rounded=0;orthogonalLoop=1;jettySize=auto;html=1;entryX=0;entryY=0.5;entryDx=0;entryDy=0;exitX=1;exitY=0.5;exitDx=0;exitDy=0;" edge="1" parent="1" source="RqDaoYSggY41LwrY34h8-16" target="RqDaoYSggY41LwrY34h8-17">
          <mxGeometry relative="1" as="geometry">
            <mxPoint x="490" y="679.5" as="sourcePoint" />
            <mxPoint x="530" y="680" as="targetPoint" />
          </mxGeometry>
        </mxCell>
      </root>
    </mxGraphModel>
  </diagram>
</mxfile>
